<svg xmlns="http://www.w3.org/2000/svg" width="271.923" height="393.932" viewBox="0 0 271.923 393.932">
  <g id="Group_6" data-name="Group 6" transform="translate(-1836.01 -2503.938)">
    <path id="Path_168" data-name="Path 168" d="M621.39,445.53l-40.84,8.05-2.65.53s-32.29-8.58-33.36-9.3-30.38-40.21-30.38-40.21,14.82.16,26.46-6.55c.42-.24.83-.5,1.24-.75a25.8,25.8,0,0,0,11-13.49c.21-.59.39-1.2.56-1.84,1.24-4.78,1.32-10.57-.34-17.58-4-16.67,5.2-21.26,17.39-20.86,17.61.58,41.58,11.57,41.58,11.57a48.87,48.87,0,0,0,3.77,16.3c.19.48.4,1,.62,1.46a46.54,46.54,0,0,0,21.69,22.75l1.29.64c1.3.62,2.67,1.21,4.09,1.74C674.65,409.79,621.39,445.53,621.39,445.53Z" transform="translate(1397.933 2276.17)" fill="#fbbebe"/>
    <path id="Path_167" data-name="Path 167" d="M629.37,336.66a51.12,51.12,0,0,1-7.8,27.23,50.389,50.389,0,0,1-5.71,7.51A51.18,51.18,0,0,1,581,388c-1,.07-2.07.1-3.11.1a51.47,51.47,0,1,1,51.47-51.47Z" transform="translate(1397.933 2276.17)" fill="#fbbebe"/>
    <path id="Path_169" data-name="Path 169" d="M667.5,549.9c.35,7.87,1.36,5.183,1.36,5.183L499.65,549.9l-3.23,40.7,1-44.64.32-14.65,1.43-50.75L494,476l-28.1-24.76h0c.21-.66,7.83-23.25,6.77-26.43s13.59-16.08,18.6-16.8a65.125,65.125,0,0,0,8.38-2.55c8.43-3,19.68-7.32,20.92-6.64,1.75.94,19.29-.69,20-.76h0s12.94,16.73,36.06,16.63a49,49,0,0,0,7.27-.58c5.74-.88,11.53-1.45,17.31-2.05,11.63-1.21,29.71-4.86,38.18-15.8,0,0,4.09.17,11.95,2.56s17.52,2.4,17.52,2.4a88.91,88.91,0,0,1,13.58,5,95,95,0,0,0,12.87,5s8.22,2.14,10.37,22.87S710,466.62,710,466.62l-42.5,36.81S667.15,542,667.5,549.9Z" transform="translate(1397.933 2276.17)" fill="#fea306"/>
    <path id="Path_170" data-name="Path 170" d="M472.15,447.67l-6.25,3.58-12,82.21s-6.37,6.08-4.38,10-.39,10.72-.39,10.72-10.76,4.65-8.37,7.51,1.3,8.22-.34,11.79-4.33,10,0,11.08.74,15,.74,15,15.09-1.72,14,7.14c-.45,3.58,17.06,15,17.06,15s-19.9-36.1,24.68-31.1l3.83-20.35s3.83-11.46,0-15,.86-20.55.86-20.55l.84-73.81Z" transform="translate(1397.933 2276.17)" fill="#fea306"/>
    <path id="Path_166" data-name="Path 166" d="M569.76,344.94c-2.36,8.82-7.73,18.91-2.17,26.15,3.87,5,12.19,6.77,13.3,13,.89,5-3.52,9.12-5.3,13.82-4.24,11.23,6.82,22.27,8.5,34.16,1.83,12.9-7.57,24.65-9.44,37.54-1.73,11.88,2.63,25.61-4.85,35a5.18,5.18,0,0,1-3.27,2.21c-4.79.51-4-8.1-7.83-11,.41,5,.8,10.22-1,14.9s-6.54,8.65-11.5,7.87l-1.71-11.24a32.389,32.389,0,0,1-11.9,7.45A86.8,86.8,0,0,1,545,481.21c-12.59,6.06-19.92,19.18-26.47,31.51-4.09,7.71-8.31,16.14-6.89,24.75.58,3.51,2.09,6.84,2.42,10.38s-.95,7.65-4.24,9c-3,1.25-6.63-.41-8.65-3s-2.8-5.89-3.53-9.08c-3.42-14.92-6.61-30.32-4.12-45.42.9-5.45,2.54-10.85,2.34-16.36-.43-12.07-9.34-22-13.68-33.23-1.69-4.37-2.51-9.81.6-13.31,1.6-1.81,4-2.72,6-4,6.21-4.06,9-11.74,10.14-19.08a66.119,66.119,0,0,0-.67-23.88c-2.51-11.75-8.27-23.23-6.84-35.16,1.4-11.74,9.44-21.42,14.85-31.93a75.541,75.541,0,0,0,7.66-44.15c-.93-7.05-2.56-15.21,2.22-20.48,5.74-6.32,16.85-3.94,23.4-9.42,3.2-2.67,4.75-6.78,7.12-10.2a25,25,0,0,1,26.71-9.54c4.5,1.29,8.54,3.85,13,5.3,6.28,2,13,1.78,19.6,2.57s13.51,3,17.29,8.41c2,2.88,2.91,6.39,4.75,9.37,3.95,6.4,11.48,9.48,17.18,14.39a33.34,33.34,0,0,1,9.38,35.61c-3.4,9.47-11.27,17.85-10.6,27.89.27,4.13,2,8.18,1.46,12.27-1.58,11.39-18.11,13.66-23.82,23.64.46-16.36-2.68-33.21-11.61-46.92-7.14-11-28.85-30.2-43.77-24.85a10.61,10.61,0,0,0-6.52,7c-1.48,5.61,2.85,8,5.63,12.43A37.8,37.8,0,0,1,569.76,344.94Z" transform="translate(1397.933 2276.17)" fill="#3f3d56"/>
  </g>
</svg>
