<?xml version="1.0" encoding="utf-8"?>
<!-- Generator: Adobe Illustrator 23.0.3, SVG Export Plug-In . SVG Version: 6.00 Build 0)  -->
<svg version="1.1" id="Layer_1" xmlns="http://www.w3.org/2000/svg" xmlns:xlink="http://www.w3.org/1999/xlink" x="0px" y="0px"
	 viewBox="0 0 300 100" style="enable-background:new 0 0 300 100;" xml:space="preserve">
<style type="text/css">
	.st0{fill:#16102F;}
	.st1{fill:#F89B39;}
	.st2{fill:#FFFFFF;}
</style>
<g>
	<g>
		<g>
			<circle class="st0" cx="52.9" cy="50" r="44.31"/>
			<path class="st1" d="M52.9,6.53c23.97,0,43.47,19.5,43.47,43.47S76.87,93.47,52.9,93.47S9.43,73.97,9.43,50S28.93,6.53,52.9,6.53
				 M52.9,4.84C27.96,4.84,7.74,25.06,7.74,50S27.96,95.16,52.9,95.16S98.06,74.94,98.06,50S77.84,4.84,52.9,4.84L52.9,4.84z"/>
		</g>
		<g>
			<path class="st2" d="M47.89,46.89h-6.51c-0.1,0-0.16-0.1-0.13-0.19l2.39-6.25c0.02-0.05,0.07-0.09,0.13-0.09h6.51
				c0.1,0,0.16,0.1,0.13,0.19l-2.39,6.25C48,46.85,47.94,46.89,47.89,46.89z"/>
			<path class="st2" d="M33.81,47.53h14.56c0.06,0,0.11-0.04,0.13-0.09l5.53-14.47c0.03-0.09-0.03-0.19-0.13-0.19H31.83
				c-0.1,0-0.16-0.1-0.13-0.19l2.39-6.25c0.02-0.05,0.07-0.09,0.13-0.09h29.15c0.1,0,0.16,0.1,0.13,0.19l-9.87,25.83
				c-0.02,0.05-0.07,0.09-0.13,0.09l-12.64,0.02c-0.04,0-0.08,0.02-0.11,0.05L24.67,73.06c-0.1,0.12-0.29,0.02-0.24-0.13l9.25-25.31
				C33.7,47.56,33.75,47.53,33.81,47.53z"/>
			<path class="st2" d="M58.44,61.29l4.75-13.54c0.02-0.06,0.07-0.09,0.13-0.09l26.97,0c0.16,0,0.19,0.22,0.04,0.27l-24.8,8.11
				c-0.04,0.01-0.07,0.05-0.09,0.09l-4.14,11.69c-0.02,0.06-0.07,0.09-0.13,0.09H33.4c-0.1,0-0.16-0.1-0.13-0.19l3.37-8.88
				c0-0.01,0.01-0.03,0.02-0.04l4.49-5.75c0.03-0.03,0.07-0.05,0.11-0.05h4.3c0.1,0,0.16,0.09,0.13,0.18l-2.81,8.01
				c-0.03,0.09,0.04,0.18,0.13,0.18h15.29C58.36,61.39,58.42,61.35,58.44,61.29z"/>
			<circle class="st2" cx="37.05" cy="71.19" r="2.57"/>
			<circle class="st2" cx="56.7" cy="71.19" r="2.57"/>
		</g>
	</g>
	<g>
		<g>
			<g>
				<g>
					<g>
						<path class="st2" d="M111.61,27.58h14.52c3.79,0,6.92,1.1,9.37,3.3c2.45,2.2,3.68,5.16,3.68,8.87c0,2.22-0.51,4.23-1.52,6.03
							c-1.36,2.39-3.28,4.07-5.76,5.04c-1.89,0.73-4.49,1.09-7.8,1.09h-2.83h-2.83V64.5h-6.84V27.58z M125.48,46.22
							c2.03,0,3.63-0.66,4.82-1.98c1.19-1.32,1.78-3.01,1.78-5.07c0-1.91-0.68-3.35-2.04-4.31c-1.36-0.96-3.02-1.44-4.98-1.44h-6.61
							v12.8H125.48z"/>
						<path class="st2" d="M148.43,52.59c0.63,2.26,1.48,3.88,2.56,4.86c1.22,1.11,2.96,1.67,5.22,1.67c1.43,0,2.68-0.33,3.76-0.99
							c0.52-0.31,1.5-1.15,2.92-2.51l5.17,2.98c-2.82,4.39-6.93,6.58-12.33,6.58c-4.18,0-7.54-1.25-10.08-3.76
							c-2.54-2.51-3.81-5.88-3.81-10.13c0-2.16,0.28-4.05,0.84-5.67c0.56-1.62,1.46-3.09,2.72-4.41c2.4-2.58,5.67-3.86,9.82-3.86
							c4.25,0,7.5,1.51,9.77,4.54c1.98,2.72,2.98,6.29,2.98,10.71H148.43z M161.07,48.1c-0.73-3.86-2.72-5.8-5.95-5.8
							c-3.13,0-5.33,1.93-6.58,5.8H161.07z"/>
						<path class="st2" d="M173.87,38.18h6.21v3.71c1.78-2.85,4.56-4.28,8.36-4.28v6.58h-0.31c-5.36,0-8.04,2.84-8.04,8.51v11.7
							h-6.21V38.18z"/>
						<path class="st2" d="M192.51,38.33h6.32v2.4c1.81-2.12,4.23-3.19,7.26-3.19c3.73,0,6.68,1.48,8.88,4.44
							c1.91,2.65,2.87,5.92,2.87,9.82c0,3.62-1.02,6.72-3.07,9.3c-2.19,2.82-5.05,4.23-8.59,4.23c-2.81,0-5.26-0.97-7.34-2.92v10.17
							h-6.32V38.33z M205.2,59.43c1.95,0,3.53-0.84,4.75-2.51c1.08-1.5,1.62-3.27,1.62-5.33c0-2.23-0.52-4.11-1.57-5.64
							c-1.15-1.67-2.82-2.51-5.01-2.51c-1.92,0-3.48,0.82-4.7,2.45c-1.08,1.5-1.62,3.24-1.62,5.22c0,2.3,0.49,4.2,1.46,5.69
							C201.28,58.56,202.97,59.43,205.2,59.43z"/>
						<path class="st2" d="M223.06,38.23h6.37V54c0,1.53,0.44,2.78,1.33,3.73c0.89,0.96,2.1,1.44,3.63,1.44
							c2.99,0,4.91-1.54,5.74-4.62c0.35-1.4,0.52-4.15,0.52-8.24v-8.08h6.37v26.22h-6.37v-2.66c-1.64,1.18-2.91,1.98-3.81,2.4
							c-1.32,0.56-2.82,0.84-4.49,0.84c-6.2,0-9.3-3.34-9.3-10.03V38.23z"/>
						<path class="st2" d="M254.76,27.42h6.48V64.4h-6.48V27.42z"/>
						<path class="st2" d="M272.62,52.59c0.63,2.26,1.48,3.88,2.56,4.86c1.22,1.11,2.96,1.67,5.22,1.67c1.43,0,2.68-0.33,3.76-0.99
							c0.52-0.31,1.5-1.15,2.92-2.51l5.17,2.98c-2.82,4.39-6.93,6.58-12.33,6.58c-4.18,0-7.54-1.25-10.08-3.76
							c-2.54-2.51-3.81-5.88-3.81-10.13c0-2.16,0.28-4.05,0.84-5.67c0.56-1.62,1.46-3.09,2.72-4.41c2.4-2.58,5.67-3.86,9.82-3.86
							c4.25,0,7.5,1.51,9.77,4.54c1.98,2.72,2.98,6.29,2.98,10.71H272.62z M285.26,48.1c-0.73-3.86-2.72-5.8-5.95-5.8
							c-3.13,0-5.33,1.93-6.58,5.8H285.26z"/>
					</g>
				</g>
			</g>
		</g>
	</g>
</g>
</svg>
