<?xml version="1.0" encoding="utf-8"?>
<!-- Generator: Adobe Illustrator 16.0.0, SVG Export Plug-In . SVG Version: 6.00 Build 0)  -->
<!DOCTYPE svg PUBLIC "-//W3C//DTD SVG 1.1//EN" "http://www.w3.org/Graphics/SVG/1.1/DTD/svg11.dtd">
<svg version="1.1" id="Layer_1" xmlns="http://www.w3.org/2000/svg" xmlns:xlink="http://www.w3.org/1999/xlink" x="0px" y="0px"
	 width="164.583px" height="210.414px" viewBox="0 0 164.583 210.414" enable-background="new 0 0 164.583 210.414"
	 xml:space="preserve">
<polygon fill-rule="evenodd" clip-rule="evenodd" stroke="#000000" stroke-width="0" stroke-linecap="square" stroke-miterlimit="10" points="
	63.158,205.553 55.817,204.478 49.185,202.865 42.905,200.712 37.002,198.029 31.645,195.173 26.806,192.126 22.517,188.91 
	18.587,185.695 15.211,182.496 12.175,179.639 9.842,176.948 8.067,174.818 6.603,172.988 5.947,172.005 5.26,171.318 5.26,169.99 
	5.696,169.118 6.021,167.816 7.28,164.044 8.17,161.729 10.093,156.483 12.41,150.605 14.9,144.913 17.796,139.846 19.461,137.627 
	20.904,135.824 23.786,132.764 32.482,124.068 33.818,122.231 34.917,120.66 35.53,118.977 38.729,107.022 38.118,105.953 
	37.082,104.054 35.686,101.959 32.876,97.043 31.531,95.026 30.316,93.465 29.332,92.087 28.534,90.291 27.244,86.235 
	26.699,82.605 26.506,81.261 26.506,80.461 26.357,79.862 26.19,78.691 25.355,76.187 24.26,73.086 24.063,71.709 23.857,70.475 
	24.057,68.877 24.237,66.892 24.78,64.18 25.3,61.406 26.165,56.045 26.34,53.774 26.496,52.371 26.348,51.183 26.004,49.293 
	25.127,44.558 24.411,40.081 24.214,37.924 24.449,36.28 24.881,35.415 25.248,34.499 26.705,31.95 28.477,28.762 30.584,25.25 
	32.709,21.885 34.884,18.623 36.911,16.227 37.909,15.229 38.856,14.519 39.918,14.094 41.113,13.582 42.763,12.849 44.579,12.303 
	48.62,10.898 53.394,9.483 57.99,8.069 62.46,6.997 66.141,6.296 67.683,5.91 70.394,5.91 72.432,6.096 74.929,6.452 77.712,6.8 
	80.917,7.156 84.493,7.871 92.116,9.466 99.961,11.784 107.269,14.635 110.743,16.281 113.848,18.29 116.634,20.333 118.906,22.793 
	121.995,27.155 124.87,32.364 127.55,38.083 129.855,44.287 132.162,50.854 134.281,57.565 138.144,71.084 139.909,77.786 
	141.659,84.087 143.236,89.869 144.811,95.119 146.193,99.609 147.718,103.339 149.014,105.768 149.75,106.65 150.269,107.17 
	152.991,108.771 155.477,109.765 156.435,110.084 157.137,110.26 157.487,110.376 158.921,110.376 158.921,112.415 158.719,113.222 
	158.546,114.432 158.174,116.106 157.654,118.188 157.121,120.672 156.409,123.518 155.516,126.729 154.447,130.108 153.218,133.62 
	150.391,141.57 146.84,149.913 142.406,158.604 137.258,167.301 134.217,171.595 131.009,175.691 127.639,179.771 123.878,183.71 
	119.774,187.456 115.659,190.856 110.997,194.084 106.164,196.948 101.136,199.461 95.58,201.612 89.842,203.405 83.753,204.658 
	77.497,205.553 70.682,205.91 "/>
<polygon fill-rule="evenodd" clip-rule="evenodd" stroke="#000000" stroke-width="0" stroke-linecap="square" stroke-miterlimit="10" points="
	40.301,106.963 40.301,106.787 40.125,106.437 39.423,105.207 38.37,103.275 36.965,101.168 34.155,96.253 32.75,94.146 
	31.521,92.565 30.644,91.337 29.941,89.757 28.712,85.895 28.185,82.383 28.009,81.153 28.009,80.276 27.834,79.573 27.659,78.345 
	26.781,75.711 25.727,72.727 25.552,71.497 25.376,70.444 25.552,69.039 25.727,67.108 26.254,64.474 26.781,61.665 27.659,56.222 
	27.834,53.94 28.009,52.36 27.834,50.955 27.483,49.024 26.605,44.284 25.903,39.894 25.727,37.963 25.903,36.734 26.254,36.032 
	26.605,35.154 28.009,32.696 29.766,29.536 31.873,26.024 33.979,22.688 36.087,19.528 38.018,17.246 38.896,16.368 39.599,15.841 
	40.477,15.49 41.706,14.963 43.286,14.261 45.042,13.734 49.08,12.33 53.822,10.925 58.386,9.52 62.776,8.467 66.463,7.765 
	67.869,7.414 69.097,7.414 70.327,7.414 72.258,7.589 74.716,7.94 77.526,8.291 80.686,8.643 84.198,9.345 91.749,10.925 
	99.474,13.208 106.673,16.016 110.009,17.597 112.995,19.528 115.628,21.459 117.736,23.742 120.72,27.955 123.53,33.047 
	126.164,38.665 128.446,44.81 130.729,51.306 132.836,57.978 136.699,71.497 138.455,78.169 140.21,84.489 141.791,90.283 
	143.372,95.551 144.776,100.115 146.356,103.979 147.761,106.612 148.639,107.665 149.341,108.367 152.327,110.123 154.96,111.176 
	156.014,111.527 156.716,111.703 157.243,111.879 157.418,111.879 157.418,112.23 157.243,112.932 157.067,114.162 156.716,115.741 
	156.189,117.849 155.663,120.307 154.96,123.115 154.083,126.276 153.029,129.612 151.799,133.123 148.99,141.024 145.478,149.276 
	141.088,157.879 135.997,166.482 133.012,170.696 129.85,174.734 126.515,178.772 122.828,182.635 118.789,186.321 114.75,189.657 
	110.185,192.817 105.444,195.628 100.528,198.085 95.083,200.192 89.465,201.948 83.496,203.177 77.35,204.055 70.678,204.405 
	63.303,204.055 56.104,203.001 49.607,201.421 43.461,199.313 37.667,196.681 32.399,193.872 27.659,190.887 23.444,187.727 
	19.582,184.566 16.245,181.405 13.26,178.597 10.978,175.964 9.222,173.856 7.817,172.101 7.115,171.048 6.764,170.696 
	6.764,170.345 7.115,169.643 7.466,168.237 7.993,166.657 8.695,164.552 9.573,162.269 11.504,157.001 13.787,151.208 
	16.245,145.589 19.055,140.673 20.635,138.566 22.04,136.811 24.849,133.826 27.483,131.192 29.766,128.909 31.873,126.803 
	33.628,125.047 35.033,123.115 36.262,121.359 36.965,119.429 40.301,106.963 "/>
<polygon fill-rule="evenodd" clip-rule="evenodd" fill="#A1A1A1" stroke="#000000" stroke-width="0" stroke-linecap="square" stroke-miterlimit="10" points="
	36.087,69.039 36.087,67.986 36.438,67.108 36.965,66.405 37.491,66.23 38.37,65.879 40.477,65.528 42.408,65.353 43.286,65.353 
	43.813,65.528 44.691,66.23 45.92,67.459 46.798,68.688 47.324,69.391 46.798,69.215 46.096,69.039 45.393,68.512 43.286,67.634 
	41.179,67.284 39.423,67.459 38.018,68.161 37.14,68.688 36.789,68.863 36.087,69.039 "/>
<polygon fill-rule="evenodd" clip-rule="evenodd" fill="#A1A1A1" stroke="#000000" stroke-width="0" stroke-linecap="square" stroke-miterlimit="10" points="
	69.625,66.932 73.136,66.581 76.296,66.756 77.526,66.932 78.404,67.108 79.106,67.284 79.282,67.284 79.106,66.932 78.58,66.23 
	76.824,65.001 75.418,64.65 73.311,64.65 71.205,65.177 70.327,65.703 69.625,66.405 69.625,66.932 "/>
<polygon fill-rule="evenodd" clip-rule="evenodd" fill="#808080" points="33.804,69.917 34.331,68.161 35.033,66.756 36.613,64.65 
	38.194,63.07 39.774,62.367 41.354,61.84 42.232,61.314 42.408,61.138 42.232,60.787 41.53,60.612 40.301,60.26 38.545,60.26 
	36.613,61.138 34.506,62.367 32.575,63.947 30.995,65.703 29.941,67.284 29.766,67.986 29.766,68.512 30.117,69.039 30.644,69.391 
	33.804,69.917 "/>
<polygon fill-rule="evenodd" clip-rule="evenodd" fill="#808080" points="57.684,69.039 56.982,67.986 56.104,67.459 54.875,67.284 
	53.822,67.284 51.89,67.634 51.187,67.81 51.012,67.986 51.012,67.81 50.836,67.284 49.958,65.879 48.729,64.123 47.148,62.718 
	43.461,60.085 42.935,59.383 42.583,58.68 42.583,58.154 43.11,57.802 43.813,57.627 48.027,57.627 52.241,57.802 56.806,57.978 
	60.844,58.329 62.776,58.505 64.181,58.68 65.41,59.032 66.113,59.207 66.113,59.383 65.761,59.559 62.776,60.787 60.669,62.192 
	59.264,63.772 58.386,65.353 57.86,66.756 57.684,67.986 57.684,69.039 "/>
<polygon fill-rule="evenodd" clip-rule="evenodd" fill="#A1A1A1" points="85.077,70.971 87.183,72.727 89.641,74.482 95.083,78.521 
	97.542,80.276 99.474,81.681 100.878,82.734 101.23,82.909 101.406,83.085 101.406,83.963 101.23,84.841 101.23,86.069 
	100.878,89.405 100.352,93.093 99.474,97.131 98.42,100.993 97.015,104.329 96.138,105.559 95.259,106.612 92.978,108.543 
	90.344,110.825 84.725,115.917 81.916,118.2 79.458,119.955 77.702,121.184 76.999,121.535 76.648,121.711 76.472,121.535 
	76.472,119.604 76.824,116.971 77.174,113.811 77.876,109.947 78.58,105.733 80.16,96.428 81.916,86.947 82.793,82.734 
	83.496,78.871 84.198,75.711 84.725,73.077 84.901,71.497 85.077,71.146 85.077,70.971 "/>
<polygon fill-rule="evenodd" clip-rule="evenodd" fill="#FFFFFF" points="33.979,94.146 35.384,95.727 36.613,97.657 
	38.896,102.398 40.828,107.313 41.881,109.596 42.759,111.703 43.637,113.811 44.691,116.444 47.148,121.711 48.553,124.169 
	50.134,126.276 51.714,127.681 53.646,128.383 55.928,128.559 58.562,128.559 64.005,127.856 66.639,127.154 68.921,126.276 
	70.678,125.047 71.731,123.467 72.433,121.887 73.136,120.482 73.487,119.429 74.014,118.727 74.189,118.551 74.365,118.727 
	74.541,119.253 74.541,120.482 74.716,121.535 75.243,122.063 76.121,122.063 77.174,121.535 78.052,120.832 79.106,119.779 
	79.808,118.376 80.335,117.146 81.389,114.337 82.793,111.352 84.374,108.543 85.954,106.085 86.657,104.856 86.833,103.1 
	87.007,100.993 86.833,98.711 85.954,94.321 85.427,92.391 84.725,90.985 84.549,89.405 84.725,87.65 86.305,83.085 88.061,78.695 
	88.413,76.94 88.413,75.711 87.534,73.779 86.481,72.375 85.427,71.321 85.077,70.971 84.901,71.146 84.549,71.321 83.847,71.497 
	82.969,71.497 82.267,71.146 82.091,70.619 81.916,70.269 81.564,70.093 80.862,70.619 79.632,71.673 78.052,72.551 76.296,72.727 
	74.716,72.375 73.838,72.024 73.838,71.673 74.189,71.673 74.716,71.497 76.296,70.971 78.052,70.093 79.282,69.215 79.632,69.039 
	79.808,68.863 78.228,67.634 78.228,67.81 78.052,68.161 77.35,69.215 75.946,70.093 75.067,70.269 73.838,70.269 72.433,69.741 
	71.907,68.863 71.556,68.161 71.556,67.81 71.205,67.81 69.449,68.161 68.747,68.337 68.219,68.688 67.869,69.391 67.341,69.917 
	67.341,70.444 68.571,70.444 69.273,70.269 69.799,70.269 71.556,70.971 71.38,70.971 70.678,71.146 69.097,71.321 68.921,71.497 
	69.097,71.849 70.327,73.077 72.083,74.131 73.838,74.833 76.472,74.833 78.404,74.131 79.808,73.253 80.51,72.902 81.038,73.077 
	81.916,73.429 82.618,73.955 82.969,74.307 82.793,74.482 80.686,74.482 79.808,75.009 78.228,75.711 76.296,76.237 74.014,76.589 
	72.609,76.589 71.205,76.237 67.869,75.36 65.059,74.307 64.005,73.604 63.303,72.902 62.952,72.551 62.425,72.375 61.372,72.902 
	60.142,73.955 59.44,75.36 59.088,75.711 58.913,75.535 58.738,74.833 58.562,73.955 58.21,71.497 57.684,69.039 57.157,67.986 
	56.28,67.284 55.05,66.581 53.822,66.23 52.768,66.054 51.714,66.23 51.187,66.932 51.012,67.986 51.012,72.199 50.485,75.36 
	50.134,76.765 49.431,77.993 48.905,78.695 48.729,78.521 48.905,77.993 49.08,76.94 49.783,74.131 50.134,72.902 50.134,71.673 
	49.958,71.146 49.783,71.146 49.607,71.673 49.256,72.551 48.202,74.482 47.5,75.185 46.798,75.535 45.042,76.063 42.759,76.94 
	41.179,77.291 39.599,77.467 37.667,77.291 35.384,76.589 37.491,76.063 38.194,75.887 38.721,75.535 39.423,75.36 40.477,75.36 
	41.706,74.833 42.057,74.482 42.232,73.955 41.706,73.604 40.652,73.429 39.423,73.077 38.194,72.551 38.018,72.375 39.423,72.375 
	40.652,72.551 43.637,72.551 45.042,72.199 46.096,71.673 46.622,71.673 47.148,71.321 46.974,70.795 46.446,70.444 45.393,70.619 
	44.515,71.146 43.286,71.673 42.583,71.673 41.706,71.497 40.301,70.619 39.599,69.566 39.423,68.688 39.423,68.337 39.248,68.512 
	38.896,68.688 37.843,69.566 36.613,70.444 35.56,70.971 35.384,71.146 35.208,71.497 35.735,72.375 36.613,73.077 37.316,73.604 
	37.14,73.604 36.087,73.429 34.682,72.902 33.628,72.199 32.75,71.849 31.697,72.199 30.468,72.727 29.063,73.077 28.712,74.833 
	28.712,77.467 28.888,80.276 29.239,83.437 29.941,86.597 30.995,89.581 32.399,92.215 33.979,94.146 "/>
<polygon fill-rule="evenodd" clip-rule="evenodd" stroke="#000000" stroke-width="0" stroke-linecap="square" stroke-miterlimit="10" points="
	47.324,83.437 45.92,86.421 44.866,89.405 44.691,90.635 44.866,91.688 45.393,92.565 46.446,93.093 48.027,93.971 49.431,95.375 
	51.187,96.604 52.241,96.955 53.47,96.955 55.578,96.253 57.157,95.199 58.386,94.146 59.791,93.268 60.318,93.093 60.318,92.917 
	59.966,92.741 59.264,92.741 57.86,93.093 56.63,93.795 55.578,94.673 54.172,95.551 52.768,96.077 51.89,95.901 51.187,95.551 
	49.958,94.321 49.08,93.093 48.553,92.039 48.378,91.688 48.553,91.863 49.08,92.215 50.661,93.268 51.714,93.619 52.768,93.619 
	53.822,93.268 55.05,92.215 55.578,91.863 56.28,91.688 58.21,91.688 60.669,91.513 62.952,90.811 65.059,89.23 65.937,88.177 
	66.288,86.947 66.288,85.719 65.761,84.489 64.356,83.261 62.074,82.031 63.654,82.207 65.234,82.734 68.395,84.314 70.853,86.421 
	71.907,87.299 72.433,88.177 73.487,89.933 74.892,91.863 76.472,93.443 78.228,94.849 79.106,95.551 80.16,96.779 81.038,98.184 
	81.74,99.939 82.091,101.871 81.916,103.803 81.213,105.909 79.984,108.016 80.862,104.681 80.862,101.168 80.335,99.413 
	79.458,97.657 78.052,96.077 76.296,94.673 74.189,93.443 72.433,92.391 71.029,91.513 69.799,90.635 68.921,90.108 68.219,89.581 
	67.869,89.405 67.693,89.23 67.693,89.405 67.517,89.757 66.815,90.985 65.585,92.215 64.708,92.741 63.654,92.917 62.776,93.093 
	62.074,93.268 61.372,93.971 60.669,94.849 59.44,95.901 58.21,97.307 57.684,98.008 57.333,98.711 56.28,99.764 55.578,100.115 
	54.7,100.291 54.524,98.711 54.348,97.833 54.348,97.481 52.943,97.481 51.539,97.131 49.958,96.428 48.729,95.551 47.676,94.849 
	46.974,94.146 45.92,93.795 44.866,93.443 44.339,92.917 44.164,92.565 44.164,92.391 43.988,92.565 43.813,93.093 42.935,94.673 
	42.232,96.428 42.057,97.131 42.057,97.833 42.759,98.887 43.637,100.467 44.164,101.871 44.164,103.451 43.461,106.787 
	43.11,108.016 43.11,108.895 43.11,109.069 42.935,108.719 42.583,107.139 42.232,105.207 42.057,103.451 41.706,102.75 
	41.003,102.047 38.896,100.291 36.613,98.359 35.735,97.481 35.384,96.604 35.384,96.077 35.56,95.901 36.087,96.077 36.789,96.253 
	37.667,96.077 38.545,95.727 39.599,94.849 40.477,93.093 41.354,91.161 42.057,89.581 43.11,87.299 44.339,85.543 45.217,84.841 
	46.271,83.963 47.324,83.437 "/>
<polygon fill-rule="evenodd" clip-rule="evenodd" stroke="#000000" stroke-width="0" stroke-linecap="square" stroke-miterlimit="10" points="
	59.616,79.749 59.264,82.734 57.508,88.001 57.157,89.055 57.157,89.933 57.333,90.459 57.684,90.459 57.86,89.933 58.21,89.23 
	59.088,87.299 60.318,85.543 60.844,84.841 61.02,84.139 60.844,82.559 60.318,81.153 60.142,80.803 59.966,80.627 59.616,79.749 
	"/>
<polygon fill-rule="evenodd" clip-rule="evenodd" stroke="#000000" stroke-width="0" stroke-linecap="square" stroke-miterlimit="10" points="
	74.014,97.481 75.418,98.184 76.296,99.237 76.824,100.291 76.999,101.695 76.648,103.803 76.472,104.505 76.472,104.681 
	76.296,104.329 76.121,103.627 75.418,102.223 74.716,101.871 73.663,102.047 72.609,102.047 72.083,102.223 71.731,102.398 
	71.029,102.925 69.975,103.803 68.571,104.681 65.585,106.437 64.181,107.139 62.952,107.489 61.898,107.665 61.02,107.665 
	59.966,107.489 59.44,107.313 59.264,107.139 59.088,107.139 58.738,107.313 57.333,107.489 55.402,107.489 53.646,107.313 
	52.065,106.612 50.134,105.559 48.378,104.505 46.974,103.627 46.096,102.925 45.744,102.574 45.744,102.047 46.271,101.871 
	46.798,101.695 47.5,101.52 49.607,101.168 51.89,100.818 52.592,100.643 53.294,100.818 54.172,101.344 55.578,101.871 
	57.333,101.871 59.616,101.344 61.196,100.993 63.303,100.818 68.395,100.818 70.853,100.993 72.785,101.168 74.189,101.344 
	74.716,101.344 74.716,100.467 74.365,99.588 73.663,98.535 74.014,97.481 "/>
<polygon fill-rule="evenodd" clip-rule="evenodd" fill="#FFFFFF" stroke="#000000" stroke-width="0" stroke-linecap="square" stroke-miterlimit="10" points="
	66.991,102.223 64.181,102.574 62.074,103.1 59.791,103.627 58.386,103.627 56.806,103.451 53.822,103.1 51.714,102.925 
	49.783,102.925 49.783,103.1 50.134,103.627 50.836,104.153 51.714,105.031 52.943,105.559 54.524,106.261 56.28,106.437 
	58.386,106.437 60.494,106.085 62.25,105.383 63.83,104.856 65.059,104.153 65.937,103.627 66.639,103.1 66.991,102.75 
	67.166,102.574 66.991,102.223 "/>
<polygon fill-rule="evenodd" clip-rule="evenodd" stroke="#000000" stroke-width="0" stroke-linecap="square" stroke-miterlimit="10" points="
	72.433,106.437 70.502,107.313 68.395,108.191 64.356,109.947 60.669,111.176 59.264,111.352 57.86,111.352 55.752,111.176 
	53.997,111.176 52.241,111 50.485,110.299 49.958,109.771 49.958,109.596 50.485,109.771 51.363,109.947 53.47,110.299 
	54.7,110.299 55.578,110.123 56.28,109.947 56.982,109.947 57.508,110.123 58.21,110.299 59.088,110.475 60.494,110.299 
	62.074,109.947 64.356,109.069 66.639,108.191 68.395,107.489 69.799,106.963 70.853,106.612 71.907,106.261 72.083,106.261 
	72.433,106.437 "/>
<polygon fill-rule="evenodd" clip-rule="evenodd" stroke="#000000" stroke-width="0" stroke-linecap="square" stroke-miterlimit="10" points="
	71.205,118.901 70.502,116.444 70.151,113.986 70.151,109.947 69.975,109.596 69.273,109.771 68.219,110.123 66.815,110.65 
	63.478,112.055 59.791,112.932 58.738,113.283 57.508,113.811 55.402,115.391 53.822,116.971 53.294,117.321 53.119,117.497 
	53.47,117.497 54.7,117.321 56.456,117.146 65.41,117.146 67.341,117.321 71.205,118.901 "/>
<polygon fill-rule="evenodd" clip-rule="evenodd" fill="#A1A1A1" stroke="#000000" stroke-width="0" stroke-linecap="square" stroke-miterlimit="10" points="
	102.81,88.879 102.284,91.161 101.932,93.971 101.581,100.115 101.406,102.75 101.406,107.139 101.23,107.313 101.054,107.841 
	100.704,108.543 100.176,109.42 98.772,111.703 94.91,117.321 92.801,119.779 90.52,121.535 89.641,122.063 88.588,122.413 
	86.481,123.115 84.023,124.169 78.58,127.505 75.946,129.261 74.014,130.665 72.609,131.719 72.258,131.895 72.083,132.07 
	68.571,129.437 68.747,129.437 69.625,129.085 70.678,128.733 72.433,128.032 74.365,126.979 76.472,125.574 78.93,123.994 
	81.389,121.711 91.924,111.527 94.031,109.069 95.962,107.139 97.191,105.383 97.893,104.153 98.42,102.75 98.947,100.643 
	100.352,95.375 101.054,92.741 101.756,90.635 102.108,89.055 102.284,88.703 102.284,88.527 102.81,88.879 "/>
<polygon fill-rule="evenodd" clip-rule="evenodd" fill="#FFFFFF" stroke="#000000" stroke-width="0" stroke-linecap="square" stroke-miterlimit="10" points="
	26.078,70.971 26.254,69.741 26.605,67.634 26.957,65.177 27.483,62.367 28.537,57.1 28.712,54.818 28.888,53.238 28.712,51.658 
	28.361,49.726 27.483,45.161 26.781,40.596 26.781,38.665 26.957,37.436 27.307,36.734 27.659,35.856 29.063,33.398 30.819,30.062 
	35.033,23.04 36.965,20.055 37.843,18.826 38.545,17.772 39.072,17.07 39.599,16.719 40.477,16.368 41.706,15.841 43.286,15.314 
	45.042,14.612 49.08,13.208 53.822,11.803 58.386,10.574 62.776,9.345 66.463,8.643 67.869,8.291 69.097,8.291 70.327,8.291 
	72.258,8.467 74.541,8.643 77.35,9.169 80.51,9.52 83.847,10.223 91.221,11.803 98.772,13.909 105.795,16.719 109.131,18.299 
	112.117,20.055 114.575,22.162 116.682,24.268 119.667,28.482 122.476,33.574 125.111,39.192 127.568,45.337 129.85,51.833 
	131.958,58.505 135.821,72.199 137.752,78.695 139.333,85.017 141.088,90.811 142.668,96.077 144.074,100.643 145.654,104.505 
	147.058,107.139 147.936,108.191 148.639,108.895 151.799,110.825 154.609,111.879 155.838,112.406 157.456,112.66 156.716,115.741 
	156.014,118.727 155.487,121.184 154.785,123.994 153.731,127.154 152.677,130.489 151.449,134.177 148.639,141.902 
	144.952,150.329 140.562,158.933 135.293,167.535 132.309,171.749 129.149,175.788 125.812,179.825 122.125,183.688 
	118.086,187.376 114.048,190.712 109.658,193.872 104.917,196.681 100,199.139 94.733,201.245 89.115,203.001 83.32,204.229 
	77.174,204.933 70.678,205.284 63.83,204.933 57.157,203.879 50.836,202.299 45.042,200.017 39.423,197.559 34.155,194.749 
	29.415,191.589 25.025,188.429 21.162,185.269 17.65,182.284 14.665,179.475 12.207,176.841 10.275,174.734 8.871,172.979 
	7.993,171.925 7.642,171.573 7.642,171.223 7.993,170.521 8.344,169.116 8.871,167.535 9.573,165.429 10.451,163.146 
	12.382,157.879 14.665,152.085 17.299,146.467 20.108,141.552 21.513,139.444 22.917,137.688 25.727,134.703 28.361,132.07 
	30.644,129.788 32.75,127.856 34.506,125.925 36.087,124.169 37.14,122.413 38.018,120.482 40.652,109.596 41.003,110.299 
	41.53,111.352 42.583,113.811 43.813,116.971 45.393,120.482 47.148,123.818 49.08,126.627 51.363,128.909 52.592,129.612 
	53.822,129.964 58.386,130.139 62.25,129.964 63.83,129.788 65.059,129.437 65.761,129.261 66.113,129.261 66.288,129.437 
	66.815,129.788 68.571,131.017 70.327,132.42 71.205,132.947 71.907,133.299 73.487,132.07 75.594,130.841 80.686,127.856 
	86.305,124.871 88.763,123.467 89.993,122.764 91.046,122.063 93.153,120.657 95.611,119.253 100.528,116.093 102.635,114.337 
	104.04,112.757 104.742,111 104.742,110.299 104.39,109.42 103.688,107.489 103.336,104.856 103.512,101.695 103.864,98.535 
	104.566,95.375 105.62,92.391 106.673,90.108 108.078,88.527 108.605,88.001 108.78,87.299 108.078,85.895 106.322,84.314 
	104.04,82.734 101.406,81.329 98.947,79.925 96.665,78.695 95.962,78.169 95.259,77.818 93.855,76.765 91.749,75.36 89.29,73.253 
	86.657,71.146 81.038,66.405 78.404,64.299 76.296,62.543 75.067,61.84 73.663,60.963 70.151,59.559 65.937,58.154 61.372,57.1 
	56.63,56.222 52.065,55.696 48.027,55.52 46.271,55.696 44.691,55.871 42.057,56.574 39.599,57.627 37.14,59.207 34.857,60.787 
	32.575,62.894 30.468,65.353 28.361,67.986 26.078,70.971 "/>
<polygon fill-rule="evenodd" clip-rule="evenodd" fill="#404040" stroke="#000000" stroke-width="0" stroke-linecap="square" stroke-miterlimit="10" points="
	26.957,65.703 28.185,63.245 29.59,60.963 31.17,59.032 32.926,57.1 34.682,55.52 38.896,53.062 41.179,52.184 46.096,51.131 
	51.187,50.78 56.456,51.482 61.722,52.886 66.815,55.169 71.731,58.154 76.121,61.49 80.16,65.001 83.671,68.337 86.657,71.321 
	87.885,72.551 88.939,73.779 89.993,74.657 90.695,75.185 91.397,75.711 92.451,76.413 94.91,77.993 100.704,82.031 103.512,83.963 
	105.97,85.719 107.024,86.421 107.727,86.947 108.253,87.475 108.429,87.65 108.605,87.825 108.956,87.825 110.361,86.421 
	110.537,86.069 110.361,85.895 110.185,85.543 109.833,84.841 109.131,84.139 107.727,81.856 106.146,79.223 102.81,72.902 
	101.581,69.917 100.704,67.108 100.176,65.703 99.298,64.299 98.069,62.718 96.49,61.138 92.626,57.627 88.413,54.291 
	83.847,51.131 79.808,48.497 77.876,47.268 76.296,46.39 74.892,45.512 73.838,44.986 71.731,43.932 68.921,42.879 65.585,41.826 
	61.547,40.772 57.157,39.894 52.417,39.543 47.324,39.719 42.232,40.421 39.248,41.299 36.965,42.703 35.384,44.108 33.979,46.039 
	32.926,47.97 31.697,50.077 30.468,52.36 28.712,54.642 26.957,65.703 "/>
<polygon fill-rule="evenodd" clip-rule="evenodd" fill="#404040" stroke="#000000" stroke-width="0" stroke-linecap="square" stroke-miterlimit="10" points="
	29.415,47.444 30.819,45.161 32.048,43.23 34.682,40.07 37.14,37.787 39.95,36.207 43.286,35.154 45.217,34.978 47.5,34.803 
	49.958,34.627 52.592,34.627 55.578,34.803 58.913,34.978 61.547,35.329 64.181,36.032 66.991,36.91 69.799,38.138 75.418,41.123 
	80.862,44.635 85.779,48.322 89.993,51.833 91.924,53.589 93.329,55.169 94.558,56.574 95.435,57.802 94.558,55.52 93.855,53.238 
	93.329,51.658 93.153,51.131 93.153,50.955 92.978,50.78 92.276,50.253 91.397,49.375 89.993,48.322 88.413,46.917 86.481,45.512 
	84.198,43.932 81.564,42.352 75.77,39.016 68.921,36.207 65.41,34.978 61.547,33.925 57.508,33.222 53.47,32.871 49.607,32.871 
	46.271,33.047 43.286,33.398 40.828,34.1 38.545,34.803 36.789,35.68 35.208,36.558 33.979,37.612 32.048,39.719 30.819,41.65 
	30.117,43.406 29.239,44.459 29.415,47.444 "/>
<polygon fill-rule="evenodd" clip-rule="evenodd" fill="#404040" stroke="#000000" stroke-width="0" stroke-linecap="square" stroke-miterlimit="10" points="
	29.063,42.703 29.239,42.352 29.766,41.299 30.644,39.894 31.697,38.138 34.682,34.276 36.438,32.696 38.37,31.467 39.599,30.94 
	41.354,30.589 43.461,30.062 45.92,29.711 48.729,29.536 55.05,29.536 58.386,29.887 62.074,30.413 65.585,31.116 69.273,32.169 
	72.96,33.574 76.472,35.329 79.984,37.436 83.32,40.07 86.305,43.054 86.305,41.123 83.32,38.138 79.984,35.505 76.472,33.398 
	72.96,31.642 69.273,30.238 65.585,29.184 62.074,28.482 58.386,27.955 55.05,27.604 48.729,27.604 45.92,27.78 43.461,28.131 
	41.354,28.658 39.599,29.009 38.37,29.536 36.438,30.764 34.682,32.345 31.697,36.207 30.644,37.963 29.766,39.368 29.239,40.421 
	29.063,40.772 29.063,42.703 "/>
<polygon fill-rule="evenodd" clip-rule="evenodd" fill="#404040" stroke="#000000" stroke-width="0" stroke-linecap="square" stroke-miterlimit="10" points="
	105.268,110.825 104.566,112.932 102.986,114.863 100.878,116.62 98.42,118.2 93.153,121.359 90.871,123.115 88.939,124.871 
	88.061,125.925 86.657,127.154 85.077,128.733 83.32,130.489 79.106,134.352 74.541,138.917 69.449,144.008 64.708,149.276 
	60.142,154.719 56.28,160.161 53.119,165.956 50.309,172.276 48.202,178.597 46.446,184.741 45.744,187.551 45.042,190.185 
	44.515,192.467 44.164,194.397 43.813,196.153 43.637,197.383 43.461,198.085 43.461,198.437 53.646,202.124 53.646,201.772 
	53.822,200.895 53.997,199.313 54.172,197.208 54.7,194.749 55.05,192.116 56.28,185.796 58.035,178.772 60.142,172.101 
	61.372,168.765 62.776,165.78 64.181,163.146 65.937,160.864 67.869,158.581 70.151,156.299 72.785,153.841 75.594,151.208 
	87.885,140.673 93.855,135.933 96.49,133.65 98.947,131.719 101.054,129.964 102.635,128.559 103.864,127.329 104.566,126.627 
	105.444,125.223 106.498,123.818 108.956,120.482 110.009,118.901 110.711,117.673 111.415,116.971 111.589,116.62 105.268,110.825 
	"/>
<polygon fill-rule="evenodd" clip-rule="evenodd" fill="#404040" stroke="#000000" stroke-width="0" stroke-linecap="square" stroke-miterlimit="10" points="
	117.033,119.429 116.331,120.832 114.926,122.588 112.995,124.695 110.887,127.154 108.605,129.437 106.673,131.719 
	104.742,133.826 103.512,135.406 102.459,136.986 101.23,138.566 98.069,142.077 94.733,145.589 91.749,148.398 90.871,149.101 
	89.993,150.329 88.763,151.559 87.358,153.139 84.374,156.65 77.702,164.727 74.716,168.765 71.907,172.452 70.853,173.856 
	69.975,175.261 69.273,176.665 68.395,178.245 66.639,182.284 63.478,191.413 62.074,195.803 61.372,197.733 60.844,199.489 
	60.494,200.895 60.142,201.948 59.966,202.649 59.791,202.825 60.142,203.001 61.02,203.353 62.074,203.528 62.6,203.704 
	62.776,203.353 62.952,202.649 63.303,201.421 63.83,199.841 64.532,197.909 65.234,195.628 66.639,190.887 68.395,185.796 
	69.975,181.23 70.853,179.123 71.556,177.368 72.258,175.964 72.785,175.085 73.487,174.208 74.365,172.803 75.594,171.223 
	76.999,169.291 80.16,164.902 83.847,160.161 87.358,155.421 90.695,151.208 92.276,149.452 93.504,147.871 94.558,146.818 
	95.435,146.115 96.314,145.413 97.542,144.359 98.947,142.955 100.704,141.376 104.566,137.513 108.605,133.123 112.467,128.909 
	114.224,126.803 115.804,125.047 117.208,123.467 118.262,122.238 118.789,121.184 119.14,120.657 117.033,119.429 "/>
<polygon fill-rule="evenodd" clip-rule="evenodd" fill="#404040" stroke="#000000" stroke-width="0" stroke-linecap="square" stroke-miterlimit="10" points="
	57.157,202.299 58.386,197.559 59.791,193.169 61.02,189.131 62.425,185.269 63.83,181.933 65.059,178.772 66.463,175.788 
	67.869,173.153 70.327,168.765 72.785,165.077 74.892,162.269 76.648,160.161 78.58,158.055 80.862,155.597 86.305,150.329 
	88.939,147.521 91.397,145.063 93.504,142.955 95.083,141.2 97.542,138.742 100,136.459 102.108,134.527 104.214,132.42 
	105.444,131.017 106.849,129.261 110.537,124.695 112.117,122.413 113.521,120.657 114.575,119.429 114.75,119.077 114.926,118.901 
	113.17,117.497 112.117,119.253 110.887,121.008 107.902,124.52 106.673,126.101 105.444,127.505 104.566,128.559 104.214,129.085 
	103.688,129.788 102.986,130.841 101.932,132.245 100.704,133.826 97.718,137.161 95.962,138.742 94.382,139.972 93.329,140.673 
	92.276,141.552 89.29,144.184 85.954,147.169 82.442,150.681 78.93,154.017 75.77,157.177 73.136,159.811 72.258,160.864 
	71.556,161.566 70.853,162.444 70.151,163.673 69.097,165.253 68.043,167.185 66.815,169.467 65.585,171.925 62.952,177.368 
	60.142,183.513 57.684,189.833 55.752,196.153 54.348,202.124 57.157,202.299 "/>
<path fill-rule="evenodd" clip-rule="evenodd" fill="#FFFFFF" d="M74.98,68.304c-0.024,0-0.024,0.038,0,0.038
	S75.004,68.304,74.98,68.304z"/>
<path fill-rule="evenodd" clip-rule="evenodd" fill="#FFFFFF" d="M75.008,67.745c-0.146,0.053-0.253,0.104-0.344,0.239
	c-0.091,0.136-0.115,0.348-0.074,0.498c0.138,0.5,0.833,0.59,1.095,0.143C75.935,68.198,75.519,67.559,75.008,67.745z"/>
<path fill-rule="evenodd" clip-rule="evenodd" fill="#FFFFFF" d="M42.666,68.704c-0.961,0-0.961,1.491,0,1.491
	C43.628,70.195,43.628,68.704,42.666,68.704z"/>
</svg>
